<svg xmlns="http://www.w3.org/2000/svg" xmlns:xlink="http://www.w3.org/1999/xlink" xml:space="preserve" version="1.1" style="shape-rendering:geometricPrecision;text-rendering:geometricPrecision;image-rendering:optimizeQuality;" viewBox="0 0 8309 10386.25" x="0px" y="0px" fill-rule="evenodd" clip-rule="evenodd"><defs><style type="text/css">
   
    .fil0 {fill:black;fill-rule:nonzero}
   
  </style></defs><g><polygon class="fil0" points="7966,6894 6584,6894 6584,7029 7966,7029 "/><path class="fil0" d="M7965 6855c-10,-199 -176,-358 -377,-358l-627 0c-200,0 -366,159 -377,358l1381 0z"/><path class="fil0" d="M7764 6247l-979 0c0,111 50,211 177,211l626 0c127,0 176,-100 176,-211z"/><path class="fil0" d="M7786 6208c61,0 59,-92 0,-92l-1022 0c-61,0 -60,92 0,92l1022 0z"/><path class="fil0" d="M7006 5347c-8,230 -55,528 -147,730l831 0c-94,-200 -138,-508 -147,-730 -179,0 -358,0 -537,0z"/><path class="fil0" d="M7275 4446c-302,0 -487,325 -345,583 31,57 76,105 130,140l430 0c54,-35 99,-83 130,-140 142,-258 -44,-583 -345,-583z"/><path class="fil0" d="M6922 5308l706 0c-10,-57 -59,-100 -118,-100l-471 0c-58,0 -108,43 -117,100z"/><path class="fil0" d="M3331 5944c-22,-187 -182,-332 -373,-332l-747 0c-191,0 -351,145 -373,332l1493 0z"/><path class="fil0" d="M2945 5569c110,0 157,-79 163,-177l-1047 0c6,98 53,177 163,177l721 0z"/><path class="fil0" d="M2011 5348l1147 0c34,0 33,-51 0,-51l-1147 0c-35,0 -33,51 0,51z"/><path class="fil0" d="M2023 5254l1118 0c63,-319 219,-817 177,-1109 -46,-319 -316,-743 -670,-757 -93,-4 -30,98 -94,90 -18,-2 -44,-28 -64,-44 -60,-50 -116,-96 -185,-127 -5,61 -6,104 10,170 15,62 5,75 -44,118 -40,35 -43,40 -67,81 -44,74 -72,102 -152,193 -81,93 -179,204 -181,218 -12,80 66,179 149,157 47,-13 59,-100 179,-105 309,-13 238,-151 296,-189 18,-12 39,-6 51,12 129,198 -180,559 -306,688 -149,152 -336,381 -217,604z"/><polygon class="fil0" points="3334,5988 1835,5988 1835,6084 3334,6084 "/><polygon class="fil0" points="8123,3904 6581,3904 6581,4043 8123,4043 "/><path class="fil0" d="M6582 3860l1540 0c-11,-209 -186,-375 -397,-375l-747 0c-210,0 -385,166 -396,375z"/><path class="fil0" d="M6991 3441l722 0c132,0 185,-104 185,-220l-1092 0c0,116 52,220 185,220z"/><path class="fil0" d="M6778 3177l1148 0c63,0 61,-94 0,-94l-1148 0c-63,0 -62,94 0,94z"/><path class="fil0" d="M7000 1795l703 0c56,0 55,-85 0,-85l-703 0c-56,0 -55,85 0,85z"/><path class="fil0" d="M7661 1582l-619 0c-56,0 -55,85 0,85l619 0c57,0 55,-85 0,-85z"/><path class="fil0" d="M7623 1538c56,0 55,-84 0,-84 -181,0 -362,0 -542,0 -57,0 -56,84 0,84l542 0z"/><path class="fil0" d="M6889 3039l925 0c-144,-299 -212,-879 -128,-1201l-669 0c87,330 13,905 -128,1201z"/><path class="fil0" d="M7044 764l615 0c-10,-59 -62,-103 -123,-103l-369 0c-60,0 -112,44 -123,103z"/><path class="fil0" d="M7328 544l48 0 0 -192 178 0 0 -55c-60,0 -119,0 -178,0l0 -192 -48 0 0 192 -178 0 0 55c59,0 119,0 178,0l0 192z"/><path class="fil0" d="M7179 1410l345 0c-2,-232 34,-375 126,-603l-595 0c108,234 127,365 124,603z"/><path class="fil0" d="M7245 618l214 0c19,0 19,-30 0,-30l-214 0c-20,0 -20,30 0,30z"/><polygon class="fil0" points="6470,4824 4929,4824 4929,4963 6470,4963 "/><path class="fil0" d="M4929 4780l1541 0c-12,-209 -186,-375 -397,-375l-747 0c-211,0 -385,166 -397,375z"/><path class="fil0" d="M5339 4361l721 0c133,0 185,-104 185,-220l-1091 0c0,116 52,220 185,220z"/><path class="fil0" d="M5126 4097c382,0 765,0 1147,0 63,0 62,-94 0,-94l-1147 0c-63,0 -62,94 0,94z"/><path class="fil0" d="M5348 2715l703 0c56,0 55,-85 0,-85l-703 0c-56,0 -55,85 0,85z"/><path class="fil0" d="M6009 2502l-619 0c-56,0 -55,85 0,85l619 0c56,0 55,-85 0,-85z"/><path class="fil0" d="M5971 2458c56,0 55,-84 0,-84 -181,0 -362,0 -543,0 -56,0 -55,84 0,84l543 0z"/><path class="fil0" d="M5237 3959l925 0c-149,-308 -209,-889 -128,-1201l-669 0c86,325 15,899 -128,1201z"/><path class="fil0" d="M5700 1655l-63 182c-22,49 -44,77 -110,58 -60,-18 -133,-55 -189,-84 105,157 183,324 186,519l351 0c3,-195 81,-362 186,-519 -55,28 -131,68 -189,84 -44,12 -76,7 -99,-36 -24,-45 -54,-138 -73,-204z"/><path class="fil0" d="M5686 1439c-200,9 -296,166 -296,350 36,18 152,76 180,68 7,-2 13,-9 18,-19 37,-68 71,-191 91,-268 7,-23 36,-20 42,0 12,46 73,265 103,284 10,7 25,3 36,-1 42,-12 113,-46 149,-64 0,-202 -107,-350 -323,-350z"/><path class="fil0" d="M5700 1395c34,0 57,-7 81,-35 36,-42 34,-105 -6,-145 -67,-67 -182,-19 -182,76 0,62 46,104 107,104z"/><polygon class="fil0" points="4819,5722 3441,5722 3441,5843 4819,5843 "/><path class="fil0" d="M3442 5679l1376 0c-11,-185 -166,-332 -353,-332 -223,0 -447,0 -670,0 -187,0 -342,147 -353,332z"/><path class="fil0" d="M3806 5303l647 0c116,0 164,-90 164,-193l-974 0c0,103 48,193 163,193z"/><path class="fil0" d="M3615 5067l1030 0c53,0 52,-81 0,-81l-1030 0c-53,0 -52,81 0,81z"/><path class="fil0" d="M3815 3827l630 0c48,0 46,-72 0,-72l-630 0c-48,0 -47,72 0,72z"/><path class="fil0" d="M3719 4943l822 0c-127,-270 -189,-781 -114,-1073l-594 0c75,291 13,802 -114,1073z"/><path class="fil0" d="M4128 2626c57,-1 77,-64 43,-99 -37,-36 -99,-10 -99,41 0,34 27,56 56,58z"/><path class="fil0" d="M3852 3641c-47,0 -46,71 0,71l555 0c48,0 47,-71 0,-71 -185,0 -370,0 -555,0z"/><path class="fil0" d="M3889 3597l482 0c79,-107 118,-244 106,-377 -14,-103 -45,-202 -97,-292l-193 345c-38,63 -125,6 -93,-52l218 -390c-53,-64 -115,-117 -182,-161 -188,126 -314,301 -347,550 -12,133 27,270 106,377z"/><path class="fil0" d="M383 6158l1148 0c63,0 62,-94 0,-94 -383,0 -765,0 -1148,0 -63,0 -61,94 0,94z"/><path class="fil0" d="M596 6422l722 0c133,0 185,-104 185,-221l-1092 0c0,117 53,221 185,221z"/><path class="fil0" d="M187 6841l1540 0c-11,-209 -186,-376 -396,-376l-747 0c-211,0 -386,167 -397,376z"/><polygon class="fil0" points="186,6884 186,7024 1728,7024 1728,6884 "/><path class="fil0" d="M1289 5133l-664 0c81,244 12,662 -125,887l915 0c-135,-222 -208,-638 -126,-887z"/><path class="fil0" d="M4137 1034l0 -998 -999 0 0 998 999 0zm-4137 7275l0 -8309 8309 0 0 8309c-2769,0 -5539,0 -8309,0zm4137 -1070l0 -998c-333,0 -666,0 -999,0l0 998 999 0zm-314 -3067l-458 0c-1,-11 -2,-22 -4,-33 -26,-181 -120,-391 -259,-549l0 -452 -998 0 0 606c-74,89 -270,299 -276,337 -4,30 0,62 12,91l-770 0 0 498c-1,-4 -2,-7 -2,-10l0 -198c0,-23 -21,-39 -44,-39l-134 0c-23,0 -44,16 -44,39l0 198c0,51 -116,64 -132,-5l-45 -200c-5,-19 -22,-32 -43,-32l-137 2c-34,1 -46,24 -43,52l51 484c3,25 17,46 37,60 -32,42 -7,103 45,111 8,22 15,47 21,74l-564 0 0 999 332 0c1,98 21,175 113,229 -189,46 -328,212 -337,407l-1 226 927 0 0 172c333,0 665,0 998,0l0 -998 -523 0c1,-13 1,-27 1,-41 108,-18 96,-180 -15,-180l-65 0c-134,-202 -212,-601 -143,-849l625 0c6,30 16,60 30,90 -57,29 -48,131 39,131 5,73 30,144 87,185l0 6c-193,51 -302,211 -312,405l0 140 312 0 0 77c333,0 666,0 998,0l0 -77 275 0 0 -140c-10,-181 -105,-333 -275,-393l0 -55c32,-40 46,-93 49,-148 94,0 95,-110 33,-134 5,-28 12,-57 18,-87 135,0 270,0 405,0 11,61 36,115 84,146 -164,45 -283,192 -293,362l0 208 774 0 0 318 999 0 0 1070 1070 0 0 -1070 449 0c11,20 29,36 57,40 0,97 19,175 112,226 -177,45 -305,202 -314,384l0 212 730 0 0 172 998 0 0 -998 -453 0c75,-31 65,-164 -34,-164l-52 0c-98,-225 -141,-479 -152,-730l86 0c0,-83 -40,-155 -119,-173l4 -3 720 0 0 -999 -998 0 0 236c-332,0 -535,356 -379,640 26,48 62,91 104,126 -25,6 -46,17 -64,32l-695 0 0 999 -1070 0 0 -999 -527 0c9,-30 14,-63 15,-97 94,-14 91,-166 -14,-166l-55 0c-100,-220 -161,-531 -152,-806l658 0c5,1 9,2 14,3l0 36c0,77 38,145 96,186l0 16c-180,51 -311,213 -321,402l0 227 321 0 0 164 999 0 0 -164 309 0 0 -227c-9,-184 -135,-343 -309,-398l0 -29c51,-42 84,-106 84,-177l0 -36c5,-1 9,-2 13,-3l937 0 0 -50 927 0 0 -227c-16,-192 -140,-358 -331,-406 76,-45 100,-138 105,-234 61,-8 85,-69 72,-118l261 0 0 -998 -580 0c6,-95 18,-187 40,-271 72,-24 74,-138 0,-162 25,-42 13,-108 -39,-127 31,-50 8,-134 -71,-134l-56 0c0,-132 20,-256 53,-376l653 0 0 -998 -998 0 0 218 -127 0c-23,0 -41,18 -41,41l0 59c0,23 18,42 41,42l127 0 0 148 -30 0c-44,0 -63,40 -56,74 -102,0 -168,39 -186,146l-17 0c51,106 88,204 113,306l-858 0 0 998 767 0c23,324 -45,711 -168,971l-62 0c-63,0 -93,51 -89,99l-448 0 0 821 -30 0c-107,-233 -173,-560 -171,-857l165 0 0 -998 -246 0c41,-122 111,-234 189,-341 14,-19 -8,-43 -28,-32 0,0 -28,16 -68,36 0,-169 -91,-312 -259,-359 111,-88 48,-267 -93,-267 -142,0 -204,179 -94,267 -167,47 -259,190 -259,359 -36,-18 -63,-33 -67,-36 -21,-12 -42,13 -29,32 78,107 148,219 190,341l-235 0 0 998 153 0c2,299 -64,634 -171,857l-17 0 0 -821 -663 0c-23,-106 -70,-201 -131,-294l-164 294 -23 0 174 -311c-55,-69 -112,-123 -181,-173 84,-53 50,-181 -46,-187l0 -363 -999 0 0 998 622 0c-9,37 -16,75 -20,114 -13,138 23,269 98,382 -59,10 -77,76 -54,119 -63,25 -64,126 2,149 24,90 36,195 37,306zm349 -1002l0 41 -22 41c-10,12 -23,0 -18,-10l40 -72zm-3102 -3134l0 998 998 0 0 -998 -998 0zm-36 8237l0 -998c-333,0 -665,0 -998,0l0 998 998 0zm2068 0l0 -998c-332,0 -665,0 -998,0l0 998 998 0zm-1034 -3490l0 -518c35,-30 53,-80 133,-83 82,-3 153,-14 208,-45l114 0c-32,176 -199,365 -303,471 -51,52 -105,111 -152,175zm-998 -2679l0 998 998 0 0 -998 -998 0zm-36 2033l0 -999 -998 0 0 999 998 0zm0 -2069l0 -998 -998 0 0 998 998 0zm2068 0l0 -998c-332,0 -665,0 -998,0l0 998 998 0zm3103 -1034l0 -998 -999 0 0 998 999 0zm-2033 6241l0 998 999 0 0 -998c-333,0 -666,0 -999,0zm999 -5207l0 -998 -999 0 0 998 999 0zm1070 5207l0 998 998 0 0 -998c-333,0 -666,0 -998,0z"/><path class="fil0" d="M1325 5089c35,0 34,-52 0,-52l-735 0c-32,0 -40,52 4,52l731 0z"/><path class="fil0" d="M889 4660c0,103 -190,123 -217,5l-45 -199c0,0 -102,2 -139,2 0,0 47,443 52,489 3,23 25,36 50,36l735 0c24,0 47,-14 49,-36 5,-46 52,-489 52,-489 0,0 -139,-2 -139,-2l-45 199c-26,118 -217,98 -217,-5l0 -194c-4,0 -132,0 -136,0l0 194z"/></g><text x="0" y="8324" fill="#000000" font-size="5px" font-weight="bold" font-family="'Helvetica Neue', Helvetica, Arial-Unicode, Arial, Sans-serif">Created by tajhin palappa</text><text x="0" y="8329" fill="#000000" font-size="5px" font-weight="bold" font-family="'Helvetica Neue', Helvetica, Arial-Unicode, Arial, Sans-serif">from the Noun Project</text></svg>