<?xml version="1.0" encoding="iso-8859-1"?>
<!-- Generator: Adobe Illustrator 18.0.0, SVG Export Plug-In . SVG Version: 6.00 Build 0)  -->
<!DOCTYPE svg PUBLIC "-//W3C//DTD SVG 1.1//EN" "http://www.w3.org/Graphics/SVG/1.1/DTD/svg11.dtd">
<svg version="1.1" id="Capa_1" xmlns="http://www.w3.org/2000/svg" xmlns:xlink="http://www.w3.org/1999/xlink" x="0px" y="0px"
	 viewBox="0 0 477.548 477.548" style="enable-background:new 0 0 477.548 477.548;" xml:space="preserve">
<g>
	<path d="M141.585,180.721l27.183-0.043c6.188-0.01,12.002-2.429,16.372-6.812c4.369-4.383,6.769-10.205,6.759-16.393
		c-0.021-12.76-10.41-23.131-23.167-23.131c-0.007,0-0.016,0-0.022,0l-102.275,0.096c-3.589,0.003-6.497,2.916-6.494,6.506
		c0.003,3.587,2.913,6.494,6.5,6.494c0.002,0,0.004,0,0.006,0l102.275-0.096c0.003,0,0.006,0,0.01,0
		c5.598,0,10.158,4.552,10.167,10.151c0.004,2.716-1.049,5.271-2.966,7.194c-1.917,1.923-4.469,2.985-7.185,2.989l-42.84,0.068
		c-2.627,0.004-4.994,1.589-5.997,4.017c-1.003,2.428-0.446,5.222,1.411,7.079l95.641,95.641c1.691,1.691,2.623,3.94,2.623,6.332
		c0,2.392-0.932,4.641-2.623,6.333s-3.94,2.623-6.333,2.623c-2.392,0-4.641-0.932-6.332-2.623l-72.225-72.225
		c-2.538-2.538-6.654-2.538-9.192,0c-2.539,2.539-2.539,6.654,0,9.192l85.988,85.988c3.491,3.492,3.491,9.173,0,12.665
		c-1.691,1.691-3.94,2.623-6.332,2.623c-2.392,0-4.641-0.932-6.332-2.623l-82.43-82.43c-2.538-2.538-6.654-2.538-9.192,0
		c-2.539,2.539-2.539,6.654,0,9.192l65.388,65.388c1.691,1.691,2.623,3.94,2.623,6.332c0,2.392-0.932,4.641-2.623,6.333
		c-3.492,3.492-9.174,3.491-12.665,0L87.342,257.62c-2.538-2.538-6.654-2.538-9.192,0c-2.539,2.539-2.539,6.654,0,9.192
		l47.831,47.831c3.492,3.492,3.492,9.173,0,12.665c-3.491,3.491-9.173,3.492-12.665,0l-74.449-74.449
		c-14.563-14.563-23.762-33.864-25.902-54.348c-0.373-3.57-3.567-6.161-7.14-5.79c-3.57,0.373-6.163,3.57-5.79,7.14
		c2.449,23.439,12.975,45.525,29.639,62.189l74.449,74.449c4.28,4.28,9.902,6.42,15.525,6.42c5.622,0,11.244-2.14,15.524-6.42
		c2.256-2.256,3.901-4.891,4.968-7.697l7.971,7.971c4.147,4.147,9.66,6.431,15.524,6.431c5.865,0,11.378-2.284,15.525-6.431
		c2.221-2.221,3.887-4.841,4.975-7.69l2.874,2.874c4.147,4.147,9.66,6.431,15.524,6.431c5.865,0,11.378-2.284,15.525-6.431
		c8.426-8.427,8.539-22.045,0.375-30.634c2.86-1.087,5.491-2.757,7.719-4.985c4.147-4.147,6.431-9.66,6.431-15.525
		c0-5.864-2.284-11.377-6.431-15.524L141.585,180.721z"/>
	<path d="M471.723,192.722c-3.57-0.371-6.767,2.22-7.14,5.79c-2.14,20.483-11.339,39.785-25.902,54.348l-74.449,74.449
		c-3.491,3.491-9.173,3.492-12.665,0c-3.492-3.492-3.492-9.173,0-12.665l47.831-47.831c2.539-2.539,2.539-6.654,0-9.192
		c-2.538-2.538-6.654-2.538-9.192,0l-69.963,69.963c-3.491,3.491-9.173,3.492-12.665,0c-1.691-1.691-2.623-3.94-2.623-6.333
		c0-2.392,0.932-4.641,2.623-6.332l65.388-65.388c2.539-2.539,2.539-6.654,0-9.192c-2.538-2.538-6.654-2.538-9.192,0l-82.43,82.43
		c-1.691,1.691-3.94,2.623-6.333,2.623c-2.392,0-4.641-0.932-6.332-2.623c-3.491-3.492-3.491-9.173,0-12.665l85.988-85.988
		c2.539-2.539,2.539-6.654,0-9.192c-2.538-2.538-6.654-2.538-9.192,0l-72.225,72.225c-3.492,3.492-9.174,3.491-12.665,0
		c-1.691-1.691-2.623-3.94-2.623-6.333c0-2.392,0.932-4.641,2.623-6.332l89.523-89.523c6.598,12.357,17.041,22.115,30.052,27.878
		c8.184,3.625,16.854,5.443,25.544,5.443c7.681,0,15.376-1.421,22.756-4.27c3.349-1.293,5.016-5.056,3.723-8.405
		c-1.293-3.349-5.055-5.014-8.405-3.723c-12.49,4.822-26.11,4.493-38.354-0.931c-12.242-5.422-21.639-15.288-26.461-27.778
		c-0.613-1.589-1.775-2.999-3.18-3.911c-1.142-0.952-2.593-1.516-4.143-1.518l-42.84-0.068c-2.716-0.004-5.268-1.066-7.185-2.989
		c-1.917-1.923-2.971-4.479-2.966-7.194c0.009-5.6,4.568-10.151,10.167-10.151c0.003,0,0.007,0,0.01,0l102.274,0.096
		c0.002,0,0.004,0,0.006,0c3.587,0,6.497-2.906,6.5-6.494c0.003-3.59-2.904-6.503-6.494-6.506l-102.274-0.096
		c-0.008,0-0.015,0-0.022,0c-12.756,0-23.146,10.372-23.167,23.131c-0.01,6.188,2.391,12.01,6.759,16.393
		c4.369,4.383,10.183,6.802,16.372,6.812l27.183,0.043l-84.57,84.57c-4.147,4.147-6.431,9.66-6.431,15.524
		c0,5.865,2.284,11.378,6.431,15.525c2.228,2.229,4.859,3.898,7.719,4.985c-8.164,8.589-8.051,22.207,0.375,30.634
		c4.147,4.147,9.66,6.431,15.524,6.431c5.865,0,11.378-2.284,15.525-6.431l2.874-2.874c1.088,2.849,2.754,5.469,4.975,7.69
		c4.147,4.147,9.66,6.431,15.525,6.431c5.864,0,11.377-2.284,15.524-6.431l7.971-7.971c1.067,2.806,2.712,5.44,4.968,7.697
		c4.28,4.28,9.902,6.42,15.525,6.42c5.622,0,11.244-2.14,15.524-6.42l74.449-74.449c16.665-16.665,27.19-38.75,29.639-62.189
		C477.886,196.292,475.294,193.095,471.723,192.722z"/>
</g>
<g>
</g>
<g>
</g>
<g>
</g>
<g>
</g>
<g>
</g>
<g>
</g>
<g>
</g>
<g>
</g>
<g>
</g>
<g>
</g>
<g>
</g>
<g>
</g>
<g>
</g>
<g>
</g>
<g>
</g>
</svg>
