<?xml version="1.0" encoding="iso-8859-1"?>
<!-- Generator: Adobe Illustrator 17.1.0, SVG Export Plug-In . SVG Version: 6.00 Build 0)  -->
<!DOCTYPE svg PUBLIC "-//W3C//DTD SVG 1.1//EN" "http://www.w3.org/Graphics/SVG/1.1/DTD/svg11.dtd">
<svg version="1.1" id="Capa_1" xmlns="http://www.w3.org/2000/svg" xmlns:xlink="http://www.w3.org/1999/xlink" x="0px" y="0px"
	 viewBox="0 0 484.987 484.987" style="enable-background:new 0 0 484.987 484.987;" xml:space="preserve">
<path d="M414.594,0h-203.14c-0.314,0-0.621,0.036-0.922,0.093c-0.102,0.019-0.198,0.049-0.298,0.075
	c-0.195,0.049-0.387,0.106-0.573,0.178c-0.107,0.041-0.211,0.087-0.314,0.135c-0.175,0.081-0.342,0.174-0.505,0.274
	c-0.091,0.056-0.182,0.109-0.269,0.17c-0.185,0.131-0.357,0.276-0.522,0.431c-0.05,0.047-0.106,0.087-0.154,0.136
	c-0.207,0.21-0.396,0.438-0.564,0.683c-0.044,0.063-0.076,0.134-0.116,0.199c-0.115,0.185-0.222,0.375-0.313,0.577
	c-0.048,0.107-0.085,0.218-0.126,0.328c-0.039,0.107-0.09,0.208-0.122,0.318c-0.021,0.073-0.028,0.148-0.046,0.222
	c-0.028,0.115-0.052,0.23-0.072,0.348c-0.036,0.213-0.056,0.424-0.064,0.636c-0.003,0.067-0.02,0.13-0.02,0.197v25.019H98.531v-4.36
	c0-2.761-2.239-5-5-5H70.394c-2.761,0-5,2.239-5,5v454.329c0,2.761,2.239,5,5,5h23.138c2.761,0,5-2.239,5-5V244.823H258.39
	c2.761,0,5-2.239,5-5v-25.019h151.204c2.761,0,5-2.239,5-5V5C419.594,2.239,417.355,0,414.594,0z M216.454,14.133l24.838,15.885
	h-24.838V14.133z M88.531,474.987H75.394V244.823h13.138V474.987z M409.594,204.804H263.39v-5.652c0-2.761-2.239-5-5-5s-5,2.239-5,5
	v35.671H98.531V79.335c0-2.761-2.239-5-5-5s-5,2.239-5,5v155.488H75.394V30.658h13.138v18.658c0,2.761,2.239,5,5,5s5-2.239,5-5
	v-9.297H253.39v125c0,2.761,2.239,5,5,5s5-2.239,5-5v-130c0-0.019-0.005-0.036-0.006-0.055c-0.003-0.208-0.034-0.413-0.062-0.619
	c-0.017-0.123-0.019-0.25-0.045-0.37c-0.036-0.167-0.099-0.326-0.152-0.489c-0.047-0.145-0.081-0.297-0.141-0.436
	c-0.064-0.151-0.156-0.289-0.235-0.434c-0.075-0.136-0.138-0.279-0.224-0.407c-0.089-0.131-0.203-0.247-0.306-0.37
	c-0.105-0.126-0.2-0.259-0.316-0.374c-0.091-0.09-0.2-0.163-0.299-0.247c-0.155-0.131-0.306-0.265-0.476-0.377
	c-0.016-0.011-0.029-0.025-0.045-0.036L228.551,10h181.042V204.804z"/>
<g>
</g>
<g>
</g>
<g>
</g>
<g>
</g>
<g>
</g>
<g>
</g>
<g>
</g>
<g>
</g>
<g>
</g>
<g>
</g>
<g>
</g>
<g>
</g>
<g>
</g>
<g>
</g>
<g>
</g>
</svg>
